<svg xmlns="http://www.w3.org/2000/svg" version="1.1" xmlns:xlink="http://www.w3.org/1999/xlink" xmlns:svgjs="http://svgjs.dev/svgjs" width="2000" height="1500" viewBox="0 0 2000 1500"><rect width="2000" height="1500" fill="#471aa0"></rect><g transform="matrix(0.75,0,0,0.75,249.09093152649518,588.7552651916119)"><svg viewBox="0 0 396 85" data-background-color="#471aa0" preserveAspectRatio="xMidYMid meet" height="429" width="2000" xmlns="http://www.w3.org/2000/svg" xmlns:xlink="http://www.w3.org/1999/xlink"><g id="tight-bounds" transform="matrix(1,0,0,1,0.23999418818129925,0.09767663935662085)"><svg viewBox="0 0 395.52 84.80464672128677" height="84.80464672128677" width="395.52"><g><svg viewBox="0 0 395.52 84.80464672128677" height="84.80464672128677" width="395.52"><g><svg viewBox="0 0 664.5960123790164 142.4980533024333" height="84.80464672128677" width="395.52"><g><rect width="3.9522490381126296" height="142.4980533024333" x="254.77756167045192" y="0" fill="#f1e8fc" opacity="1" stroke-width="0" stroke="transparent" fill-opacity="1" class="rect-o-0" data-fill-palette-color="primary" rx="1%" id="o-0" data-palette-color="#f1e8fc"></rect></g><g transform="matrix(1,0,0,1,269.0760123790165,0.3544727694090284)"><svg viewBox="0 0 395.52 141.78910776361525" height="141.78910776361525" width="395.52"><g><svg viewBox="0 0 395.52 141.78910776361525" height="141.78910776361525" width="395.52"><g><svg viewBox="0 0 395.52 141.78910776361525" height="141.78910776361525" width="395.52"><g transform="matrix(1,0,0,1,0,0)"><svg width="395.52" viewBox="2.2000010013580322 -37.30000305175781 347.1999816894531 120.35000610351562" height="141.78910776361525" data-palette-color="#f1e8fc"><svg></svg><svg></svg><svg></svg><g class="undefined-text-0" data-fill-palette-color="primary" id="text-0"><path xmlns="http://www.w3.org/2000/svg" d="M14.65-32.15v0h-2.85v14.45h2.85c2.3 0 4.077-0.66 5.33-1.98 1.247-1.313 1.87-3.08 1.87-5.3 0-2.213-0.623-3.963-1.87-5.25-1.253-1.28-3.03-1.92-5.33-1.92zM6.8-36.8v0h9.35c0.1 0 0.2 0 0.3 0v0c5.5 0 9.583 1.7 12.25 5.1v0c1.467 1.867 2.2 4.117 2.2 6.75 0 2.633-0.733 4.867-2.2 6.7v0c-2.7 3.433-6.883 5.15-12.55 5.15v0h-4.4v7.95c0 1.8 0.55 2.983 1.65 3.55v0c-1.267 1.433-2.8 2.15-4.6 2.15v0c-3.267 0-4.9-1.983-4.9-5.95v0-25.75c0-1.7-0.567-2.85-1.7-3.45v0c1.233-1.467 2.767-2.2 4.6-2.2zM48.35-6.4v0h8.05c2.367 0 4.467-0.667 6.3-2v0c1.067 0.9 1.6 2.083 1.6 3.55 0 1.467-0.533 2.64-1.6 3.52-1.067 0.887-2.667 1.33-4.8 1.33v0h-10.85c-3.333 0-5.773-0.717-7.32-2.15-1.553-1.433-2.33-3.7-2.33-6.8v0-22.2c0-1.7-0.567-2.85-1.7-3.45v0c1.233-1.467 2.75-2.2 4.55-2.2v0h16.7c2.633 0 4.517 0.343 5.65 1.03 1.133 0.68 1.7 1.687 1.7 3.02 0 1.333-0.533 2.45-1.6 3.35v0c-1.6-0.633-3.7-0.95-6.3-0.95v0h-11.15v7.5h6.9c2.667 0 4.56 0.283 5.68 0.85 1.113 0.567 1.67 1.523 1.67 2.87 0 1.353-0.533 2.447-1.6 3.28v0c-1.2-0.4-3.3-0.6-6.3-0.6v0h-6.35v6.5c0 2.367 1.033 3.55 3.1 3.55zM85.85-24.65l-4.15 12.85h7.8zM103.4-2.3c-0.4 0.867-1.073 1.557-2.02 2.07-0.953 0.52-2.08 0.78-3.38 0.78-1.3 0-2.367-0.327-3.2-0.98-0.833-0.647-1.583-1.803-2.25-3.47v0l-1.2-3.1h-11.35l-1.25 3.5c-0.933 2.7-2.517 4.05-4.75 4.05v0c-1.067 0-2.073-0.243-3.02-0.73-0.953-0.48-1.58-1.087-1.88-1.82v0c0.567-0.233 1.043-0.627 1.43-1.18 0.38-0.547 0.803-1.403 1.27-2.57v0l10.25-26.45c-0.6-1.3-1.25-2.2-1.95-2.7v0c1.033-1.6 2.633-2.4 4.8-2.4v0c1.667 0 2.883 0.45 3.65 1.35 0.767 0.9 1.583 2.517 2.45 4.85v0l8.95 24.2c0.867 2.367 2.017 3.9 3.45 4.6zM113.15-36.8v0h17.3c2.533 0 4.293 0.3 5.28 0.9 0.98 0.6 1.47 1.507 1.47 2.72 0 1.22-0.533 2.28-1.6 3.18v0c-1.6-0.633-3.7-0.95-6.3-0.95v0h-11.15v8.85h6.9c2.667 0 4.56 0.24 5.68 0.72 1.113 0.487 1.67 1.287 1.67 2.4 0 1.12-0.533 2.047-1.6 2.78v0c-1.2-0.333-3.3-0.5-6.3-0.5v0h-6.35v11.55c0 1.8 0.533 2.983 1.6 3.55v0c-1.2 1.433-2.717 2.15-4.55 2.15v0c-3.267 0-4.9-1.983-4.9-5.95v0-25.75c0-1.7-0.567-2.85-1.7-3.45v0c1.233-1.467 2.75-2.2 4.55-2.2zM158.6-4.4v0c2.933 0 5-1.3 6.2-3.9v0c0.933-2.1 1.4-4.733 1.4-7.9v0c0-0.7-0.017-1.433-0.05-2.2v0c-0.233-4.2-1.1-7.583-2.6-10.15-1.5-2.567-3.717-3.85-6.65-3.85v0c-5.067 0-7.6 3.983-7.6 11.95v0c0 6.7 1.433 11.4 4.3 14.1v0c1.367 1.3 3.033 1.95 5 1.95zM170.55-31.78c1.267 1.753 2.21 3.737 2.83 5.95 0.613 2.22 0.92 4.687 0.92 7.4 0 2.72-0.307 5.197-0.92 7.43-0.62 2.233-1.563 4.233-2.83 6-1.267 1.767-2.99 3.133-5.17 4.1-2.187 0.967-4.73 1.45-7.63 1.45v0c-5.533 0-9.673-1.76-12.42-5.28-2.753-3.513-4.13-8.07-4.13-13.67 0-5.6 1.377-10.15 4.13-13.65 2.747-3.5 6.887-5.25 12.42-5.25v0c2.933 0 5.483 0.483 7.65 1.45 2.167 0.967 3.883 2.323 5.15 4.07zM221.6-32.8v0c0-1.367-0.367-2.417-1.1-3.15v0c1.233-0.9 2.7-1.35 4.4-1.35v0c2.833 0 4.25 1.517 4.25 4.55v0c0 0.467-0.1 1.3-0.3 2.5v0l-6.15 24.25c-0.867 4.367-3 6.55-6.4 6.55v0c-3.467 0-5.667-2.183-6.6-6.55v0l-5.15-19.75-5.35 19.75c-0.533 2.433-1.323 4.133-2.37 5.1-1.053 0.967-2.487 1.45-4.3 1.45-1.82 0-3.22-0.483-4.2-1.45-0.987-0.967-1.73-2.667-2.23-5.1v0l-5.8-24.8c-0.533-2.267-1.333-3.733-2.4-4.4v0c1.367-1.4 2.917-2.1 4.65-2.1 1.733 0 3.077 0.44 4.03 1.32 0.947 0.887 1.62 2.447 2.02 4.68v0l4.3 23.45 6.7-24.75c0.5-1.733 1.183-2.95 2.05-3.65 0.867-0.7 2.033-1.05 3.5-1.05v0c3.033 0 4.917 1.567 5.65 4.7v0l5.85 25.15 4.75-23.5c0.133-0.667 0.2-1.283 0.2-1.85zM235.5-8.35v0-23.35c0-1.733-0.55-2.883-1.65-3.45v0c1.2-1.433 2.717-2.15 4.55-2.15v0c3.333 0 5 1.967 5 5.9v0 22.05c0 2.367 1.033 3.55 3.1 3.55v0h5.15c2.367 0 4.167-0.667 5.4-2v0c0.8 0.567 1.2 1.507 1.2 2.82 0 1.32-0.523 2.48-1.57 3.48-1.053 1-2.58 1.5-4.58 1.5v0h-7.5c-3.333 0-5.683-0.617-7.05-1.85-1.367-1.233-2.05-3.4-2.05-6.5z" fill="#f1e8fc" fill-rule="nonzero" stroke="none" stroke-width="1" stroke-linecap="butt" stroke-linejoin="miter" stroke-miterlimit="10" stroke-dasharray="" stroke-dashoffset="0" font-family="none" font-weight="none" font-size="none" text-anchor="none" style="mix-blend-mode: normal" data-fill-palette-color="primary" opacity="1"></path><path xmlns="http://www.w3.org/2000/svg" d="M16.85 34.85v0h8.05c2.367 0 4.467-0.667 6.3-2v0c1.067 0.9 1.6 2.083 1.6 3.55 0 1.467-0.533 2.64-1.6 3.52-1.067 0.887-2.667 1.33-4.8 1.33v0h-10.85c-3.333 0-5.777-0.717-7.33-2.15-1.547-1.433-2.32-3.7-2.32-6.8v0-22.2c0-1.7-0.567-2.85-1.7-3.45v0c1.233-1.467 2.75-2.2 4.55-2.2v0h16.7c2.633 0 4.517 0.343 5.65 1.03 1.133 0.68 1.7 1.687 1.7 3.02 0 1.333-0.533 2.45-1.6 3.35v0c-1.6-0.633-3.7-0.95-6.3-0.95v0h-11.15v7.5h6.9c2.667 0 4.56 0.283 5.68 0.85 1.113 0.567 1.67 1.523 1.67 2.87 0 1.353-0.533 2.447-1.6 3.28v0c-1.2-0.4-3.3-0.6-6.3-0.6v0h-6.35v6.5c0 2.367 1.033 3.55 3.1 3.55zM69.05 37.1c-0.367 1.467-1.017 2.617-1.95 3.45-0.933 0.833-2.05 1.25-3.35 1.25-1.3 0-2.39-0.277-3.27-0.83-0.887-0.547-1.813-1.57-2.78-3.07v0l-5.3-8.3-6.05 8.65c-0.867 1.233-1.723 2.133-2.57 2.7-0.853 0.567-1.897 0.85-3.13 0.85-1.233 0-2.267-0.433-3.1-1.3-0.833-0.867-1.25-2.083-1.25-3.65v0c0.8 0 1.45-0.143 1.95-0.43 0.5-0.28 1.017-0.77 1.55-1.47v0l8.5-11.7-7.1-11.15c-1.467-2.333-3.1-3.5-4.9-3.5v0c0.767-3.1 2.567-4.65 5.4-4.65v0c1.2 0 2.25 0.283 3.15 0.85 0.9 0.567 1.817 1.583 2.75 3.05v0l6.25 9.75 5.05-7.15c0.767-1.033 1.15-1.993 1.15-2.88 0-0.88-0.45-1.67-1.35-2.37v0c1.567-0.833 3.143-1.25 4.73-1.25 1.58 0 2.813 0.39 3.7 1.17 0.88 0.787 1.32 1.92 1.32 3.4 0 1.487-0.767 3.197-2.3 5.13v0l-8.25 10.35 6.2 9.65c1.467 2.3 3.117 3.45 4.95 3.45zM103 11.3v0c0 1.5-0.533 2.607-1.6 3.32-1.067 0.72-2.35 1.08-3.85 1.08-1.5 0-2.817-0.35-3.95-1.05v0c0.133-0.667 0.2-1.427 0.2-2.28 0-0.847-0.233-1.637-0.7-2.37v0c-0.733-1.1-1.917-1.65-3.55-1.65v0c-2.4 0-4.45 1.24-6.15 3.72-1.7 2.487-2.55 5.94-2.55 10.36 0 4.413 0.927 7.57 2.78 9.47 1.847 1.9 4.403 2.85 7.67 2.85v0c2 0 3.91-0.477 5.73-1.43 1.813-0.947 3.253-2.07 4.32-3.37v0c1.167 0.5 1.75 1.533 1.75 3.1v0c0 2.033-1.367 4-4.1 5.9-2.733 1.9-5.983 2.85-9.75 2.85v0c-5.267 0-9.36-1.627-12.28-4.88-2.913-3.247-4.37-7.803-4.37-13.67 0-5.867 1.583-10.55 4.75-14.05 3.167-3.5 7.467-5.25 12.9-5.25v0c3.5 0 6.5 0.707 9 2.12 2.5 1.42 3.75 3.163 3.75 5.23zM123.25 34.85v0h8.05c2.367 0 4.467-0.667 6.3-2v0c1.067 0.9 1.6 2.083 1.6 3.55 0 1.467-0.533 2.64-1.6 3.52-1.067 0.887-2.667 1.33-4.8 1.33v0h-10.85c-3.333 0-5.773-0.717-7.32-2.15-1.553-1.433-2.33-3.7-2.33-6.8v0-22.2c0-1.7-0.567-2.85-1.7-3.45v0c1.233-1.467 2.75-2.2 4.55-2.2v0h16.7c2.633 0 4.517 0.343 5.65 1.03 1.133 0.68 1.7 1.687 1.7 3.02 0 1.333-0.533 2.45-1.6 3.35v0c-1.6-0.633-3.7-0.95-6.3-0.95v0h-11.15v7.5h6.9c2.667 0 4.56 0.283 5.68 0.85 1.113 0.567 1.67 1.523 1.67 2.87 0 1.353-0.533 2.447-1.6 3.28v0c-1.2-0.4-3.3-0.6-6.3-0.6v0h-6.35v6.5c0 2.367 1.033 3.55 3.1 3.55zM147.7 32.9v0-23.35c0-1.733-0.55-2.883-1.65-3.45v0c1.2-1.433 2.717-2.15 4.55-2.15v0c3.333 0 5 1.967 5 5.9v0 22.05c0 2.367 1.033 3.55 3.1 3.55v0h5.15c2.367 0 4.167-0.667 5.4-2v0c0.8 0.567 1.2 1.507 1.2 2.82 0 1.32-0.523 2.48-1.57 3.48-1.053 1-2.58 1.5-4.58 1.5v0h-7.5c-3.333 0-5.683-0.617-7.05-1.85-1.367-1.233-2.05-3.4-2.05-6.5zM177.15 32.9v0-23.35c0-1.733-0.55-2.883-1.65-3.45v0c1.2-1.433 2.717-2.15 4.55-2.15v0c3.333 0 5 1.967 5 5.9v0 22.05c0 2.367 1.033 3.55 3.1 3.55v0h5.15c2.367 0 4.167-0.667 5.4-2v0c0.8 0.567 1.2 1.507 1.2 2.82 0 1.32-0.523 2.48-1.57 3.48-1.053 1-2.58 1.5-4.58 1.5v0h-7.5c-3.333 0-5.683-0.617-7.05-1.85-1.367-1.233-2.05-3.4-2.05-6.5zM217.95 34.85v0h8.05c2.367 0 4.467-0.667 6.3-2v0c1.067 0.9 1.6 2.083 1.6 3.55 0 1.467-0.533 2.64-1.6 3.52-1.067 0.887-2.667 1.33-4.8 1.33v0h-10.85c-3.333 0-5.773-0.717-7.32-2.15-1.553-1.433-2.33-3.7-2.33-6.8v0-22.2c0-1.7-0.567-2.85-1.7-3.45v0c1.233-1.467 2.75-2.2 4.55-2.2v0h16.7c2.633 0 4.517 0.343 5.65 1.03 1.133 0.68 1.7 1.687 1.7 3.02 0 1.333-0.533 2.45-1.6 3.35v0c-1.6-0.633-3.7-0.95-6.3-0.95v0h-11.15v7.5h6.9c2.667 0 4.56 0.283 5.68 0.85 1.113 0.567 1.67 1.523 1.67 2.87 0 1.353-0.533 2.447-1.6 3.28v0c-1.2-0.4-3.3-0.6-6.3-0.6v0h-6.35v6.5c0 2.367 1.033 3.55 3.1 3.55zM242.4 35.85v0-26.3c0-1.733-0.55-2.883-1.65-3.45v0c1.2-1.433 3-2.15 5.4-2.15v0c2.933 0 5.283 1.467 7.05 4.4v0l13.8 22.9v-21.7c0-1.733-0.55-2.883-1.65-3.45v0c1.2-1.433 2.717-2.15 4.55-2.15v0c3.333 0 5 1.967 5 5.9v0 26.25c0 1.9 0.317 3.317 0.95 4.25v0c-1.033 0.967-2.533 1.45-4.5 1.45-1.967 0-3.7-0.593-5.2-1.78-1.5-1.18-3.117-3.187-4.85-6.02v0l-11-18.45v20.55c0 1.8 0.533 2.983 1.6 3.55v0c-1.267 1.433-2.767 2.15-4.5 2.15-1.733 0-3-0.483-3.8-1.45-0.8-0.967-1.2-2.467-1.2-4.5zM313.2 11.3v0c0 1.5-0.533 2.607-1.6 3.32-1.067 0.72-2.35 1.08-3.85 1.08-1.5 0-2.817-0.35-3.95-1.05v0c0.133-0.667 0.2-1.427 0.2-2.28 0-0.847-0.233-1.637-0.7-2.37v0c-0.733-1.1-1.917-1.65-3.55-1.65v0c-2.4 0-4.45 1.24-6.15 3.72-1.7 2.487-2.55 5.94-2.55 10.36 0 4.413 0.927 7.57 2.78 9.47 1.847 1.9 4.403 2.85 7.67 2.85v0c2 0 3.91-0.477 5.73-1.43 1.813-0.947 3.253-2.07 4.32-3.37v0c1.167 0.5 1.75 1.533 1.75 3.1v0c0 2.033-1.367 4-4.1 5.9-2.733 1.9-5.983 2.85-9.75 2.85v0c-5.267 0-9.357-1.627-12.27-4.88-2.92-3.247-4.38-7.803-4.38-13.67 0-5.867 1.583-10.55 4.75-14.05 3.167-3.5 7.467-5.25 12.9-5.25v0c3.5 0 6.5 0.707 9 2.12 2.5 1.42 3.75 3.163 3.75 5.23zM333.45 34.85v0h8.05c2.367 0 4.467-0.667 6.3-2v0c1.067 0.9 1.6 2.083 1.6 3.55 0 1.467-0.533 2.64-1.6 3.52-1.067 0.887-2.667 1.33-4.8 1.33v0h-10.85c-3.333 0-5.773-0.717-7.32-2.15-1.553-1.433-2.33-3.7-2.33-6.8v0-22.2c0-1.7-0.567-2.85-1.7-3.45v0c1.233-1.467 2.75-2.2 4.55-2.2v0h16.7c2.633 0 4.517 0.343 5.65 1.03 1.133 0.68 1.7 1.687 1.7 3.02 0 1.333-0.533 2.45-1.6 3.35v0c-1.6-0.633-3.7-0.95-6.3-0.95v0h-11.15v7.5h6.9c2.667 0 4.56 0.283 5.68 0.85 1.113 0.567 1.67 1.523 1.67 2.87 0 1.353-0.533 2.447-1.6 3.28v0c-1.2-0.4-3.3-0.6-6.3-0.6v0h-6.35v6.5c0 2.367 1.033 3.55 3.1 3.55z" fill="#f1e8fc" fill-rule="nonzero" stroke="none" stroke-width="1" stroke-linecap="butt" stroke-linejoin="miter" stroke-miterlimit="10" stroke-dasharray="" stroke-dashoffset="0" font-family="none" font-weight="none" font-size="none" text-anchor="none" style="mix-blend-mode: normal" data-fill-palette-color="primary" opacity="1"></path><path xmlns="http://www.w3.org/2000/svg" d="M14.65 50.35v0h-2.85v14.45h2.85c2.3 0 4.077-0.66 5.33-1.98 1.247-1.313 1.87-3.08 1.87-5.3 0-2.213-0.623-3.963-1.87-5.25-1.253-1.28-3.03-1.92-5.33-1.92zM6.8 45.7v0h9.35c0.1 0 0.2 0 0.3 0v0c5.5 0 9.583 1.7 12.25 5.1v0c1.467 1.867 2.2 4.117 2.2 6.75 0 2.633-0.733 4.867-2.2 6.7v0c-2.7 3.433-6.883 5.15-12.55 5.15v0h-4.4v7.95c0 1.8 0.55 2.983 1.65 3.55v0c-1.267 1.433-2.8 2.15-4.6 2.15v0c-3.267 0-4.9-1.983-4.9-5.95v0-25.75c0-1.7-0.567-2.85-1.7-3.45v0c1.233-1.467 2.767-2.2 4.6-2.2zM52.2 78.1v0c2.933 0 5-1.3 6.2-3.9v0c0.933-2.1 1.4-4.733 1.4-7.9v0c0-0.7-0.017-1.433-0.05-2.2v0c-0.233-4.2-1.1-7.583-2.6-10.15-1.5-2.567-3.717-3.85-6.65-3.85v0c-5.067 0-7.6 3.983-7.6 11.95v0c0 6.7 1.433 11.4 4.3 14.1v0c1.367 1.3 3.033 1.95 5 1.95zM64.15 50.72c1.267 1.753 2.207 3.737 2.82 5.95 0.62 2.22 0.93 4.687 0.93 7.4 0 2.72-0.31 5.197-0.93 7.43-0.613 2.233-1.553 4.233-2.82 6-1.267 1.767-2.99 3.133-5.17 4.1-2.187 0.967-4.73 1.45-7.63 1.45v0c-5.533 0-9.677-1.76-12.43-5.28-2.747-3.513-4.12-8.07-4.12-13.67 0-5.6 1.373-10.15 4.12-13.65 2.753-3.5 6.897-5.25 12.43-5.25v0c2.933 0 5.483 0.483 7.65 1.45 2.167 0.967 3.883 2.323 5.15 4.07zM76.4 74.05v0-20.75c0-2.3-0.45-4.133-1.35-5.5v0c4.767-1.733 9.417-2.6 13.95-2.6v0c5.767 0 10.443 1.667 14.03 5 3.58 3.333 5.37 7.973 5.37 13.92 0 5.953-1.79 10.597-5.37 13.93-3.587 3.333-8.263 5-14.03 5v0c-4.333 0-7.517-0.71-9.55-2.13-2.033-1.413-3.05-3.703-3.05-6.87zM84.3 51.4v23.2c0 2.067 1.66 3.1 4.98 3.1 3.313 0 5.98-1.233 8-3.7 2.013-2.467 3.02-5.75 3.02-9.85 0-4.1-1.007-7.4-3.02-9.9-2.02-2.5-4.78-3.75-8.28-3.75v0c-1.533 0-3.1 0.3-4.7 0.9zM144.85 52.55v0c0 1.5-0.533 2.607-1.6 3.32-1.067 0.72-2.35 1.08-3.85 1.08-1.5 0-2.817-0.35-3.95-1.05v0c0.133-0.667 0.2-1.427 0.2-2.28 0-0.847-0.233-1.637-0.7-2.37v0c-0.733-1.1-1.917-1.65-3.55-1.65v0c-2.4 0-4.45 1.24-6.15 3.72-1.7 2.487-2.55 5.94-2.55 10.36 0 4.413 0.927 7.57 2.78 9.47 1.847 1.9 4.403 2.85 7.67 2.85v0c2 0 3.91-0.477 5.73-1.43 1.813-0.947 3.253-2.07 4.32-3.37v0c1.167 0.5 1.75 1.533 1.75 3.1v0c0 2.033-1.367 4-4.1 5.9-2.733 1.9-5.983 2.85-9.75 2.85v0c-5.267 0-9.357-1.627-12.27-4.88-2.92-3.247-4.38-7.803-4.38-13.67 0-5.867 1.583-10.55 4.75-14.05 3.167-3.5 7.467-5.25 12.9-5.25v0c3.5 0 6.5 0.707 9 2.12 2.5 1.42 3.75 3.163 3.75 5.23zM166.8 57.85l-4.15 12.85h7.8zM184.35 80.2c-0.4 0.867-1.077 1.557-2.03 2.07-0.947 0.52-2.07 0.78-3.37 0.78-1.3 0-2.367-0.327-3.2-0.98-0.833-0.647-1.583-1.803-2.25-3.47v0l-1.2-3.1h-11.35l-1.25 3.5c-0.933 2.7-2.517 4.05-4.75 4.05v0c-1.067 0-2.073-0.243-3.02-0.73-0.953-0.48-1.58-1.087-1.88-1.82v0c0.567-0.233 1.04-0.627 1.42-1.18 0.387-0.547 0.813-1.403 1.28-2.57v0l10.25-26.45c-0.6-1.3-1.25-2.2-1.95-2.7v0c1.033-1.6 2.633-2.4 4.8-2.4v0c1.667 0 2.883 0.45 3.65 1.35 0.767 0.9 1.583 2.517 2.45 4.85v0l8.95 24.2c0.867 2.367 2.017 3.9 3.45 4.6zM217.5 52.6v0c0 1.233-0.393 2.223-1.18 2.97-0.78 0.753-1.853 1.13-3.22 1.13-1.367 0-2.65-0.433-3.85-1.3v0c0.267-0.533 0.4-1.227 0.4-2.08 0-0.847-0.49-1.603-1.47-2.27-0.987-0.667-2.39-1-4.21-1-1.813 0-3.303 0.333-4.47 1-1.167 0.667-1.75 1.557-1.75 2.67 0 1.12 0.71 2.153 2.13 3.1 1.413 0.953 3.13 1.87 5.15 2.75 2.013 0.887 4.027 1.847 6.04 2.88 2.02 1.033 3.737 2.383 5.15 4.05 1.42 1.667 2.13 3.533 2.13 5.6v0c0 3.2-1.427 5.823-4.28 7.87-2.847 2.053-6.297 3.08-10.35 3.08-4.047 0-7.47-0.76-10.27-2.28-2.8-1.513-4.2-3.47-4.2-5.87v0c0-1.4 0.49-2.517 1.47-3.35 0.987-0.833 2.173-1.25 3.56-1.25 1.38 0 2.737 0.533 4.07 1.6v0c-0.8 0.733-1.2 1.617-1.2 2.65 0 1.033 0.607 1.9 1.82 2.6 1.22 0.7 2.857 1.05 4.91 1.05 2.047 0 3.66-0.417 4.84-1.25 1.187-0.833 1.78-1.943 1.78-3.33 0-1.38-0.707-2.613-2.12-3.7-1.42-1.08-3.14-2.053-5.16-2.92-2.013-0.867-4.03-1.783-6.05-2.75-2.013-0.967-3.727-2.193-5.14-3.68-1.42-1.48-2.13-3.17-2.13-5.07v0c0-3.133 1.367-5.633 4.1-7.5 2.733-1.867 6.083-2.8 10.05-2.8 3.967 0 7.2 0.7 9.7 2.1 2.5 1.4 3.75 3.167 3.75 5.3zM228.8 45.7v0h18.1c3.2 0 4.8 1.283 4.8 3.85v0c0 0.9-0.417 1.867-1.25 2.9v0c-1.367-0.6-3.333-0.9-5.9-0.9v0h-3.95v25.8c0 1.8 0.55 2.983 1.65 3.55v0c-1.267 1.433-2.8 2.15-4.6 2.15v0c-3.267 0-4.9-1.983-4.9-5.95v0-25.55h-6.3c-3.2 0-4.8-1.283-4.8-3.85v0c0-0.9 0.417-1.867 1.25-2.9v0c1.367 0.6 3.333 0.9 5.9 0.9z" fill="#f1e8fc" fill-rule="nonzero" stroke="none" stroke-width="1" stroke-linecap="butt" stroke-linejoin="miter" stroke-miterlimit="10" stroke-dasharray="" stroke-dashoffset="0" font-family="none" font-weight="none" font-size="none" text-anchor="none" style="mix-blend-mode: normal" data-fill-palette-color="primary" opacity="1"></path></g></svg></g></svg></g></svg></g></svg></g><g transform="matrix(1,0,0,1,0,11.931346752955506)"><svg viewBox="0 0 244.43136 118.6353597965223" height="118.6353597965223" width="244.43136"><g><svg xmlns="http://www.w3.org/2000/svg" xmlns:xlink="http://www.w3.org/1999/xlink" version="1.1" x="0" y="0" viewBox="5.078000068664551 28.19700050354004 89.843994140625 43.60600280761719" enable-background="new 0 0 100 100" xml:space="preserve" height="118.6353597965223" width="244.43136" class="icon-icon-0" data-fill-palette-color="accent" id="icon-0"><g fill="#bb84e8" data-fill-palette-color="accent"><polygon points="56.617,69.125 90.578,52.771 94.922,71.803 60.389,71.803  " fill="#bb84e8" data-fill-palette-color="accent"></polygon><polygon points="54.129,67.346 78.301,37.034 90.18,51.93 55.763,68.504  " fill="#bb84e8" data-fill-palette-color="accent"></polygon><polygon points="51.853,65.74 60.419,28.207 77.585,36.473 53.38,66.824  " fill="#bb84e8" data-fill-palette-color="accent"></polygon><polygon points="49.312,57.304 53.486,47.075 54.043,41.996 52.164,39.652 52.165,39.653 56.571,39.653 56.571,39.561    56.129,38.448 53.121,38.781 55.877,37.831 55.124,36.585 52.599,38.353 54.646,36.059 53.647,35.224 51.515,38.959 48.778,39.004    44.232,42.947 47.711,42.762 49.938,43.596 50.007,46.147 45.745,51.288 40.474,28.197 59.525,28.197 51.132,64.974  " fill="#bb84e8" data-fill-palette-color="accent"></polygon><polygon points="41.102,56.683 40.246,58.821 22.416,36.463 39.581,28.197 45.007,51.974  " fill="#bb84e8" data-fill-palette-color="accent"></polygon><polygon points="37.756,65.417 37.756,65.417 9.82,51.964 21.699,37.068 39.854,59.834  " fill="#bb84e8" data-fill-palette-color="accent"></polygon><polygon points="37.649,71.803 5.078,71.803 9.421,52.77 37.739,66.407  " fill="#bb84e8" data-fill-palette-color="accent"></polygon></g></svg></g></svg></g></svg></g></svg></g><defs></defs></svg><rect width="395.52" height="84.80464672128677" fill="none" stroke="none" visibility="hidden"></rect></g></svg></g></svg>